<svg xmlns="http://www.w3.org/2000/svg" width="1200" height="675" viewBox="0 0 1200 675" role="img" aria-labelledby="title desc">
<title id="title">Does Your Business Need a Mobile App? App vs Website vs WhatsApp</title><desc id="desc">Phone app, website browser and WhatsApp conversation compared side by side</desc>
<defs><linearGradient id="bg" x1="0" y1="0" x2="1" y2="1"><stop stop-color="#02070c"/><stop offset="0.55" stop-color="#071722"/><stop offset="1" stop-color="#061019"/></linearGradient><radialGradient id="glow"><stop stop-color="#17b890" stop-opacity=".48"/><stop offset="1" stop-color="#17b890" stop-opacity="0"/></radialGradient><pattern id="grid" width="48" height="48" patternUnits="userSpaceOnUse"><path d="M48 0H0V48" fill="none" stroke="#ffffff" stroke-opacity=".045"/></pattern></defs>
<rect width="1200" height="675" fill="url(#bg)"/><rect width="1200" height="675" fill="url(#grid)"/><circle cx="270" cy="320" r="330" fill="url(#glow)"/><path d="M0 594 C260 520 410 675 690 585 C900 520 1030 525 1200 585 V675 H0Z" fill="#17b890" opacity=".12"/>
<g transform="translate(0 60) scale(.70)"><g stroke="#eaf8ff" stroke-width="8" fill="none" stroke-linecap="round" stroke-linejoin="round"><rect x="105" y="155" width="170" height="285" rx="28"/><circle cx="190" cy="410" r="8" fill="#43d5ff" stroke="none"/><rect x="330" y="175" width="255" height="210" rx="18"/><path d="M330 225 H585"/><path d="M370 275 H540 M370 315 H500"/><path d="M640 210 Q710 210 710 280 V330 Q710 385 655 385 H625 L590 420 V385 Q550 385 550 345"/></g></g>
<text x="640" y="92" fill="#43d5ff" font-family="Arial,Helvetica,sans-serif" font-size="19" font-weight="800" letter-spacing="2.5">ARIQ CLIENT RESOURCE</text>
<text x="640" y="268" fill="#f4fbff" font-family="Arial,Helvetica,sans-serif" font-size="42" font-weight="800"><tspan x="640" dy="0">Does Your Business</tspan><tspan x="640" dy="52">Need a Mobile App? App</tspan><tspan x="640" dy="52">vs Website vs WhatsApp</tspan></text>
<text x="640" y="550" fill="#a9bac7" font-family="Arial,Helvetica,sans-serif" font-size="24">Mobile Development</text>
<rect x="640" y="580" width="225" height="6" rx="3" fill="#17b890"/><circle cx="885" cy="583" r="6" fill="#43d5ff"/>
</svg>