<svg xmlns="http://www.w3.org/2000/svg" width="1200" height="675" viewBox="0 0 1200 675" role="img" aria-labelledby="title desc">
<title id="title">2MP vs 5MP vs 8MP CCTV: Image Quality, Storage and When to Choose Each</title><desc id="desc">CCTV resolution comparison showing 2MP, 5MP and 8MP image detail</desc>
<defs><linearGradient id="bg" x1="0" y1="0" x2="1" y2="1"><stop stop-color="#02070c"/><stop offset="0.55" stop-color="#071722"/><stop offset="1" stop-color="#061019"/></linearGradient><radialGradient id="glow"><stop stop-color="#ff8c42" stop-opacity=".48"/><stop offset="1" stop-color="#ff8c42" stop-opacity="0"/></radialGradient><pattern id="grid" width="48" height="48" patternUnits="userSpaceOnUse"><path d="M48 0H0V48" fill="none" stroke="#ffffff" stroke-opacity=".045"/></pattern></defs>
<rect width="1200" height="675" fill="url(#bg)"/><rect width="1200" height="675" fill="url(#grid)"/><circle cx="270" cy="320" r="330" fill="url(#glow)"/><path d="M0 594 C260 520 410 675 690 585 C900 520 1030 525 1200 585 V675 H0Z" fill="#ff8c42" opacity=".12"/>
<g transform="translate(0 60) scale(.70)"><g stroke="#eaf8ff" stroke-width="8" fill="none" stroke-linecap="round" stroke-linejoin="round"><rect x="105" y="245" width="150" height="110" rx="14"/><rect x="290" y="205" width="180" height="150" rx="14"/><rect x="505" y="155" width="220" height="200" rx="14"/><text x="180" y="315" text-anchor="middle" fill="#eaf8ff" stroke="none" font-size="40" font-weight="800">2MP</text><text x="380" y="300" text-anchor="middle" fill="#eaf8ff" stroke="none" font-size="44" font-weight="800">5MP</text><text x="615" y="275" text-anchor="middle" fill="#eaf8ff" stroke="none" font-size="50" font-weight="800">8MP</text><path d="M105 390 H725"/></g></g>
<text x="640" y="92" fill="#43d5ff" font-family="Arial,Helvetica,sans-serif" font-size="19" font-weight="800" letter-spacing="2.5">ARIQ CLIENT RESOURCE</text>
<text x="640" y="242" fill="#f4fbff" font-family="Arial,Helvetica,sans-serif" font-size="42" font-weight="800"><tspan x="640" dy="0">2MP vs 5MP vs 8MP</tspan><tspan x="640" dy="52">CCTV: Image Quality,</tspan><tspan x="640" dy="52">Storage and When to</tspan><tspan x="640" dy="52">Choose Each</tspan></text>
<text x="640" y="550" fill="#a9bac7" font-family="Arial,Helvetica,sans-serif" font-size="24">CCTV &amp; Security</text>
<rect x="640" y="580" width="225" height="6" rx="3" fill="#ff8c42"/><circle cx="885" cy="583" r="6" fill="#43d5ff"/>
</svg>