<svg xmlns="http://www.w3.org/2000/svg" width="1200" height="675" viewBox="0 0 1200 675" role="img" aria-labelledby="title desc">
<title id="title">Small Business IT Maintenance Checklist: Daily, Weekly, Monthly and Quarterly</title><desc id="desc">IT maintenance checklist beside a business laptop, router and tools</desc>
<defs><linearGradient id="bg" x1="0" y1="0" x2="1" y2="1"><stop stop-color="#02070c"/><stop offset="0.55" stop-color="#071722"/><stop offset="1" stop-color="#061019"/></linearGradient><radialGradient id="glow"><stop stop-color="#ef5da8" stop-opacity=".48"/><stop offset="1" stop-color="#ef5da8" stop-opacity="0"/></radialGradient><pattern id="grid" width="48" height="48" patternUnits="userSpaceOnUse"><path d="M48 0H0V48" fill="none" stroke="#ffffff" stroke-opacity=".045"/></pattern></defs>
<rect width="1200" height="675" fill="url(#bg)"/><rect width="1200" height="675" fill="url(#grid)"/><circle cx="270" cy="320" r="330" fill="url(#glow)"/><path d="M0 594 C260 520 410 675 690 585 C900 520 1030 525 1200 585 V675 H0Z" fill="#ef5da8" opacity=".12"/>
<g transform="translate(0 60) scale(.70)"><g stroke="#eaf8ff" stroke-width="8" fill="none" stroke-linecap="round" stroke-linejoin="round"><rect x="115" y="165" width="340" height="230" rx="18"/><path d="M95 420 H475"/><path d="M175 230 l18 18 32 -38 M175 290 l18 18 32 -38 M175 350 l18 18 32 -38"/><path d="M250 235 H395 M250 295 H375 M250 355 H405"/><path d="M545 185 l45 45 -100 100 -55 12 12 -55 Z"/><circle cx="590" cy="185" r="35"/></g></g>
<text x="640" y="92" fill="#43d5ff" font-family="Arial,Helvetica,sans-serif" font-size="19" font-weight="800" letter-spacing="2.5">ARIQ CLIENT RESOURCE</text>
<text x="640" y="242" fill="#f4fbff" font-family="Arial,Helvetica,sans-serif" font-size="42" font-weight="800"><tspan x="640" dy="0">Small Business IT</tspan><tspan x="640" dy="52">Maintenance Checklist:</tspan><tspan x="640" dy="52">Daily, Weekly, Monthly</tspan><tspan x="640" dy="52">and Quarterly</tspan></text>
<text x="640" y="550" fill="#a9bac7" font-family="Arial,Helvetica,sans-serif" font-size="24">IT Support</text>
<rect x="640" y="580" width="225" height="6" rx="3" fill="#ef5da8"/><circle cx="885" cy="583" r="6" fill="#43d5ff"/>
</svg>