<svg xmlns="http://www.w3.org/2000/svg" width="1200" height="675" viewBox="0 0 1200 675" role="img" aria-labelledby="title desc">
<title id="title">Building an Offline-First Business App for Zimbabwe: Features That Matter</title><desc id="desc">Android business app continuing offline and synchronising records when connectivity returns</desc>
<defs><linearGradient id="bg" x1="0" y1="0" x2="1" y2="1"><stop stop-color="#02070c"/><stop offset="0.55" stop-color="#071722"/><stop offset="1" stop-color="#061019"/></linearGradient><radialGradient id="glow"><stop stop-color="#17b890" stop-opacity=".48"/><stop offset="1" stop-color="#17b890" stop-opacity="0"/></radialGradient><pattern id="grid" width="48" height="48" patternUnits="userSpaceOnUse"><path d="M48 0H0V48" fill="none" stroke="#ffffff" stroke-opacity=".045"/></pattern></defs>
<rect width="1200" height="675" fill="url(#bg)"/><rect width="1200" height="675" fill="url(#grid)"/><circle cx="270" cy="320" r="330" fill="url(#glow)"/><path d="M0 594 C260 520 410 675 690 585 C900 520 1030 525 1200 585 V675 H0Z" fill="#17b890" opacity=".12"/>
<g transform="translate(0 60) scale(.70)"><g stroke="#eaf8ff" stroke-width="8" fill="none" stroke-linecap="round" stroke-linejoin="round"><rect x="140" y="135" width="205" height="320" rx="30"/><path d="M185 225 H300 M185 275 H280 M185 325 H295"/><circle cx="243" cy="415" r="9" fill="#43d5ff" stroke="none"/><path d="M425 205 C505 150 595 195 605 270 C655 280 680 320 660 365 C645 400 610 412 570 412 H435 C385 412 355 382 360 342 C364 305 392 280 425 278"/><path d="M445 315 C480 280 540 280 575 315 M575 315 l-22 -4 M575 315 l-7 -22 M570 350 C535 385 475 385 440 350 M440 350 l22 4 M440 350 l7 22"/></g></g>
<text x="640" y="92" fill="#43d5ff" font-family="Arial,Helvetica,sans-serif" font-size="19" font-weight="800" letter-spacing="2.5">ARIQ CLIENT RESOURCE</text>
<text x="640" y="242" fill="#f4fbff" font-family="Arial,Helvetica,sans-serif" font-size="42" font-weight="800"><tspan x="640" dy="0">Building an Offline-First</tspan><tspan x="640" dy="52">Business App for</tspan><tspan x="640" dy="52">Zimbabwe: Features That</tspan><tspan x="640" dy="52">Matter</tspan></text>
<text x="640" y="550" fill="#a9bac7" font-family="Arial,Helvetica,sans-serif" font-size="24">Mobile Development</text>
<rect x="640" y="580" width="225" height="6" rx="3" fill="#17b890"/><circle cx="885" cy="583" r="6" fill="#43d5ff"/>
</svg>