<svg xmlns="http://www.w3.org/2000/svg" width="1200" height="675" viewBox="0 0 1200 675" role="img" aria-labelledby="title desc">
<title id="title">Why Even the Smallest Business Needs Automation</title><desc id="desc">Small business owner supported by automated WhatsApp, booking and follow-up workflows</desc>
<defs><linearGradient id="bg" x1="0" y1="0" x2="1" y2="1"><stop stop-color="#02070c"/><stop offset="0.55" stop-color="#071722"/><stop offset="1" stop-color="#061019"/></linearGradient><radialGradient id="glow"><stop stop-color="#16c784" stop-opacity=".48"/><stop offset="1" stop-color="#16c784" stop-opacity="0"/></radialGradient><pattern id="grid" width="48" height="48" patternUnits="userSpaceOnUse"><path d="M48 0H0V48" fill="none" stroke="#ffffff" stroke-opacity=".045"/></pattern></defs>
<rect width="1200" height="675" fill="url(#bg)"/><rect width="1200" height="675" fill="url(#grid)"/><circle cx="270" cy="320" r="330" fill="url(#glow)"/><path d="M0 594 C260 520 410 675 690 585 C900 520 1030 525 1200 585 V675 H0Z" fill="#16c784" opacity=".12"/>
<g transform="translate(0 60) scale(.70)"><g stroke="#eaf8ff" stroke-width="8" fill="none" stroke-linecap="round" stroke-linejoin="round"><path d="M130 250 Q130 180 200 180 H380 Q450 180 450 250 V330 Q450 400 380 400 H270 L205 445 V400 H200 Q130 400 130 330 Z"/><path d="M185 245 H390 M185 290 H340 M185 335 H315"/><circle cx="570" cy="275" r="75"/><circle cx="570" cy="275" r="28"/><path d="M570 170 V200 M570 350 V380 M465 275 H495 M645 275 H675 M496 201 L518 222 M622 328 L644 350 M496 349 L518 328 M622 222 L644 201"/></g></g>
<text x="640" y="92" fill="#43d5ff" font-family="Arial,Helvetica,sans-serif" font-size="19" font-weight="800" letter-spacing="2.5">ARIQ CLIENT RESOURCE</text>
<text x="640" y="268" fill="#f4fbff" font-family="Arial,Helvetica,sans-serif" font-size="42" font-weight="800"><tspan x="640" dy="0">Why Even the Smallest</tspan><tspan x="640" dy="52">Business Needs</tspan><tspan x="640" dy="52">Automation</tspan></text>
<text x="640" y="550" fill="#a9bac7" font-family="Arial,Helvetica,sans-serif" font-size="24">Business Automation</text>
<rect x="640" y="580" width="225" height="6" rx="3" fill="#16c784"/><circle cx="885" cy="583" r="6" fill="#43d5ff"/>
</svg>