<svg xmlns="http://www.w3.org/2000/svg" width="1200" height="675" viewBox="0 0 1200 675" role="img" aria-labelledby="title desc">
<title id="title">Starlink vs Zimbabwean ISPs in 2026: Costs, Speeds, Advantages and Disadvantages</title><desc id="desc">Satellite internet dish comparing Starlink with fibre, LTE and mobile internet options</desc>
<defs><linearGradient id="bg" x1="0" y1="0" x2="1" y2="1"><stop stop-color="#02070c"/><stop offset="0.55" stop-color="#071722"/><stop offset="1" stop-color="#061019"/></linearGradient><radialGradient id="glow"><stop stop-color="#0796ff" stop-opacity=".48"/><stop offset="1" stop-color="#0796ff" stop-opacity="0"/></radialGradient><pattern id="grid" width="48" height="48" patternUnits="userSpaceOnUse"><path d="M48 0H0V48" fill="none" stroke="#ffffff" stroke-opacity=".045"/></pattern></defs>
<rect width="1200" height="675" fill="url(#bg)"/><rect width="1200" height="675" fill="url(#grid)"/><circle cx="270" cy="320" r="330" fill="url(#glow)"/><path d="M0 594 C260 520 410 675 690 585 C900 520 1030 525 1200 585 V675 H0Z" fill="#0796ff" opacity=".12"/>
<g transform="translate(0 60) scale(.70)"><g stroke="#eaf8ff" stroke-width="8" fill="none" stroke-linecap="round" stroke-linejoin="round"><path d="M165 330 Q245 230 345 220"/><path d="M160 330 L250 420"/><path d="M145 345 L205 405"/><circle cx="360" cy="205" r="18" fill="#43d5ff" stroke="none"/><path d="M390 190 C455 145 525 145 590 190"/><path d="M420 235 C470 205 520 205 570 235"/><rect x="440" y="300" width="120" height="90" rx="14"/><path d="M465 330 H535 M465 355 H515"/></g></g>
<text x="640" y="92" fill="#43d5ff" font-family="Arial,Helvetica,sans-serif" font-size="19" font-weight="800" letter-spacing="2.5">ARIQ CLIENT RESOURCE</text>
<text x="640" y="242" fill="#f4fbff" font-family="Arial,Helvetica,sans-serif" font-size="42" font-weight="800"><tspan x="640" dy="0">Starlink vs Zimbabwean</tspan><tspan x="640" dy="52">ISPs in 2026: Costs,</tspan><tspan x="640" dy="52">Speeds, Advantages and</tspan><tspan x="640" dy="52">Disadvantages</tspan></text>
<text x="640" y="550" fill="#a9bac7" font-family="Arial,Helvetica,sans-serif" font-size="24">Starlink</text>
<rect x="640" y="580" width="225" height="6" rx="3" fill="#0796ff"/><circle cx="885" cy="583" r="6" fill="#43d5ff"/>
</svg>