<svg xmlns="http://www.w3.org/2000/svg" width="1200" height="675" viewBox="0 0 1200 675" role="img" aria-labelledby="title desc">
<title id="title">Starlink Mini vs Standard Kit: Which One Should You Choose in Zimbabwe?</title><desc id="desc">Comparison illustration of a compact Starlink Mini and larger Standard satellite kit</desc>
<defs><linearGradient id="bg" x1="0" y1="0" x2="1" y2="1"><stop stop-color="#02070c"/><stop offset="0.55" stop-color="#071722"/><stop offset="1" stop-color="#061019"/></linearGradient><radialGradient id="glow"><stop stop-color="#0796ff" stop-opacity=".48"/><stop offset="1" stop-color="#0796ff" stop-opacity="0"/></radialGradient><pattern id="grid" width="48" height="48" patternUnits="userSpaceOnUse"><path d="M48 0H0V48" fill="none" stroke="#ffffff" stroke-opacity=".045"/></pattern></defs>
<rect width="1200" height="675" fill="url(#bg)"/><rect width="1200" height="675" fill="url(#grid)"/><circle cx="270" cy="320" r="330" fill="url(#glow)"/><path d="M0 594 C260 520 410 675 690 585 C900 520 1030 525 1200 585 V675 H0Z" fill="#0796ff" opacity=".12"/>
<g transform="translate(0 60) scale(.70)"><g stroke="#eaf8ff" stroke-width="8" fill="none" stroke-linecap="round" stroke-linejoin="round"><rect x="135" y="205" width="155" height="205" rx="24"/><path d="M165 310 Q210 245 260 260"/><path d="M205 325 L245 365"/><rect x="360" y="155" width="250" height="255" rx="24"/><path d="M400 295 Q475 190 565 210"/><path d="M455 315 L520 380"/><path d="M320 285 H345"/></g></g>
<text x="640" y="92" fill="#43d5ff" font-family="Arial,Helvetica,sans-serif" font-size="19" font-weight="800" letter-spacing="2.5">ARIQ CLIENT RESOURCE</text>
<text x="640" y="242" fill="#f4fbff" font-family="Arial,Helvetica,sans-serif" font-size="42" font-weight="800"><tspan x="640" dy="0">Starlink Mini vs Standard</tspan><tspan x="640" dy="52">Kit: Which One Should</tspan><tspan x="640" dy="52">You Choose in</tspan><tspan x="640" dy="52">Zimbabwe?</tspan></text>
<text x="640" y="550" fill="#a9bac7" font-family="Arial,Helvetica,sans-serif" font-size="24">Starlink</text>
<rect x="640" y="580" width="225" height="6" rx="3" fill="#0796ff"/><circle cx="885" cy="583" r="6" fill="#43d5ff"/>
</svg>