<svg xmlns="http://www.w3.org/2000/svg" width="1200" height="675" viewBox="0 0 1200 675" role="img" aria-labelledby="title desc">
<title id="title">Website vs Facebook and WhatsApp Only: Why Your Business Needs an Online Home</title><desc id="desc">Business website displayed beside social media and WhatsApp icons</desc>
<defs><linearGradient id="bg" x1="0" y1="0" x2="1" y2="1"><stop stop-color="#02070c"/><stop offset="0.55" stop-color="#071722"/><stop offset="1" stop-color="#061019"/></linearGradient><radialGradient id="glow"><stop stop-color="#7c5cff" stop-opacity=".48"/><stop offset="1" stop-color="#7c5cff" stop-opacity="0"/></radialGradient><pattern id="grid" width="48" height="48" patternUnits="userSpaceOnUse"><path d="M48 0H0V48" fill="none" stroke="#ffffff" stroke-opacity=".045"/></pattern></defs>
<rect width="1200" height="675" fill="url(#bg)"/><rect width="1200" height="675" fill="url(#grid)"/><circle cx="270" cy="320" r="330" fill="url(#glow)"/><path d="M0 594 C260 520 410 675 690 585 C900 520 1030 525 1200 585 V675 H0Z" fill="#7c5cff" opacity=".12"/>
<g transform="translate(0 60) scale(.70)"><g stroke="#eaf8ff" stroke-width="8" fill="none" stroke-linecap="round" stroke-linejoin="round"><rect x="120" y="165" width="360" height="245" rx="18"/><path d="M120 220 H480"/><circle cx="155" cy="193" r="6" fill="#43d5ff" stroke="none"/><circle cx="180" cy="193" r="6" fill="#43d5ff" stroke="none"/><path d="M180 280 H420 M180 320 H370 M180 360 H330"/><circle cx="570" cy="235" r="66"/><path d="M545 235 H595 M570 210 V260"/><path d="M520 365 Q570 310 620 365 Q570 420 520 365 Z"/></g></g>
<text x="640" y="92" fill="#43d5ff" font-family="Arial,Helvetica,sans-serif" font-size="19" font-weight="800" letter-spacing="2.5">ARIQ CLIENT RESOURCE</text>
<text x="640" y="242" fill="#f4fbff" font-family="Arial,Helvetica,sans-serif" font-size="42" font-weight="800"><tspan x="640" dy="0">Website vs Facebook</tspan><tspan x="640" dy="52">and WhatsApp Only:</tspan><tspan x="640" dy="52">Why Your Business</tspan><tspan x="640" dy="52">Needs an Online Home</tspan></text>
<text x="640" y="550" fill="#a9bac7" font-family="Arial,Helvetica,sans-serif" font-size="24">Web Development</text>
<rect x="640" y="580" width="225" height="6" rx="3" fill="#7c5cff"/><circle cx="885" cy="583" r="6" fill="#43d5ff"/>
</svg>