<svg xmlns="http://www.w3.org/2000/svg" width="1200" height="675" viewBox="0 0 1200 675" role="img" aria-labelledby="title desc">
<title id="title">WhatsApp Business App vs Chatbot vs API: Which Level Is Right for Your Business?</title><desc id="desc">Three levels of WhatsApp business communication from app to chatbot and integrated API</desc>
<defs><linearGradient id="bg" x1="0" y1="0" x2="1" y2="1"><stop stop-color="#02070c"/><stop offset="0.55" stop-color="#071722"/><stop offset="1" stop-color="#061019"/></linearGradient><radialGradient id="glow"><stop stop-color="#16c784" stop-opacity=".48"/><stop offset="1" stop-color="#16c784" stop-opacity="0"/></radialGradient><pattern id="grid" width="48" height="48" patternUnits="userSpaceOnUse"><path d="M48 0H0V48" fill="none" stroke="#ffffff" stroke-opacity=".045"/></pattern></defs>
<rect width="1200" height="675" fill="url(#bg)"/><rect width="1200" height="675" fill="url(#grid)"/><circle cx="270" cy="320" r="330" fill="url(#glow)"/><path d="M0 594 C260 520 410 675 690 585 C900 520 1030 525 1200 585 V675 H0Z" fill="#16c784" opacity=".12"/>
<g transform="translate(0 60) scale(.70)"><g stroke="#eaf8ff" stroke-width="8" fill="none" stroke-linecap="round" stroke-linejoin="round"><rect x="125" y="315" width="155" height="105" rx="16"/><rect x="305" y="245" width="155" height="175" rx="16"/><rect x="485" y="170" width="155" height="250" rx="16"/><path d="M160 350 H245 M340 290 H425 M340 330 H410 M520 220 H605 M520 260 H590 M520 300 H610"/><path d="M205 315 V270 H382 V245 M382 245 V200 H562 V170"/></g></g>
<text x="640" y="92" fill="#43d5ff" font-family="Arial,Helvetica,sans-serif" font-size="19" font-weight="800" letter-spacing="2.5">ARIQ CLIENT RESOURCE</text>
<text x="640" y="242" fill="#f4fbff" font-family="Arial,Helvetica,sans-serif" font-size="42" font-weight="800"><tspan x="640" dy="0">WhatsApp Business App</tspan><tspan x="640" dy="52">vs Chatbot vs API: Which</tspan><tspan x="640" dy="52">Level Is Right for Your</tspan><tspan x="640" dy="52">Business?</tspan></text>
<text x="640" y="550" fill="#a9bac7" font-family="Arial,Helvetica,sans-serif" font-size="24">Business Automation</text>
<rect x="640" y="580" width="225" height="6" rx="3" fill="#16c784"/><circle cx="885" cy="583" r="6" fill="#43d5ff"/>
</svg>